<svg width="657" height="185" viewBox="0 0 657 185" fill="none" xmlns="http://www.w3.org/2000/svg">
<path fill-rule="evenodd" clip-rule="evenodd" d="M34.3182 44.9709C30.6137 45.9247 27.7774 48.9074 27.0111 52.6552L2.45634 172.742C1.18807 178.944 5.92716 184.75 12.258 184.75H215.128C221.018 184.75 225.633 179.687 225.09 173.822L210.058 11.6933C209.489 5.56005 203.567 1.39251 197.602 2.92838L34.3182 44.9709ZM82.1337 126.791C83.6842 126.791 85.7884 126.457 87.0067 126.012L87.782 139.92C85.7884 140.921 82.6874 141.477 79.8079 141.477C67.0715 141.477 58.1007 133.355 58.1007 119.225L58.1007 101.101H48.0224V86.1915H58.1007V73.7225L73.7166 67.3639V86.1915H80.9626H87.1175H91.041V73.7225L106.657 67.3639V86.1915H120.058V101.101H106.657L106.657 118.446C106.657 123.564 110.533 126.791 115.074 126.791C116.624 126.791 118.729 126.457 119.947 126.012L120.722 139.92C118.729 140.921 115.628 141.477 112.748 141.477C100.012 141.477 91.0409 133.355 91.0409 119.225L91.041 101.101H87.1175H80.9626H73.7166L73.7166 118.446C73.7166 123.564 77.5929 126.791 82.1337 126.791ZM150.128 149.624C157.903 149.624 162.624 144.51 162.624 135.118V133.63C160.31 138.559 154.571 141.348 148.277 141.348C133.282 141.348 122.452 129.725 122.452 114.196C122.452 98.3875 133.467 86.3919 148.277 86.3919C154.941 86.3919 160.032 88.9026 162.531 92.9011H162.716V88.0657H178.081V134.188C178.081 141.162 177.156 146.463 175.305 149.996C171.602 157.156 161.513 162.643 148.647 162.643C138.014 162.643 130.107 158.212 126.121 151.974L141.696 145.531C143.563 148.558 146.694 149.624 150.128 149.624ZM137.817 113.638C137.817 120.891 142.723 126.935 150.128 126.935C157.625 126.935 162.716 121.542 162.716 114.103C162.716 106.57 157.625 100.805 150.128 100.805C143.279 100.805 137.817 106.57 137.817 113.638Z" fill="url(#paint0_linear)"/>
<path fill-rule="evenodd" clip-rule="evenodd" d="M87.0058 126.012C85.7875 126.457 83.6832 126.79 82.1327 126.79C77.5919 126.79 73.7157 123.564 73.7157 118.446L73.7157 101.101H80.9617H87.1166H91.04L91.04 119.225C91.04 133.355 100.011 141.477 112.747 141.477C115.627 141.477 118.728 140.921 120.721 139.92L119.946 126.012C118.728 126.457 116.623 126.79 115.073 126.79C110.532 126.79 106.656 123.564 106.656 118.446L106.656 101.101H120.057V86.1914H106.656V67.3638L91.04 73.7224V86.1914H87.1166H80.9617H73.7157V67.3638L58.0998 73.7224V86.1914H48.0215V101.101H58.0998L58.0998 119.225C58.0998 133.355 67.0706 141.477 79.807 141.477C82.6865 141.477 85.7875 140.921 87.781 139.92L87.0058 126.012ZM162.623 135.118C162.623 144.51 157.902 149.624 150.127 149.624C146.693 149.624 143.562 148.558 141.695 145.531L126.121 151.974C130.106 158.212 138.013 162.643 148.646 162.643C161.512 162.643 171.601 157.156 175.304 149.996C177.155 146.463 178.08 141.162 178.08 134.188V88.0656H162.715V92.901H162.53C160.031 88.9025 154.94 86.3918 148.276 86.3918C133.466 86.3918 122.451 98.3873 122.451 114.195C122.451 129.725 133.281 141.348 148.276 141.348C154.57 141.348 160.309 138.559 162.623 133.63V135.118ZM150.127 126.935C142.722 126.935 137.816 120.891 137.816 113.637C137.816 106.57 143.278 100.805 150.127 100.805C157.624 100.805 162.715 106.57 162.715 114.102C162.715 121.542 157.624 126.935 150.127 126.935Z" fill="white"/>
<path fill-rule="evenodd" clip-rule="evenodd" d="M285.669 170.229C293.444 170.229 298.165 165.114 298.165 155.723V154.235C295.851 159.163 290.112 161.953 283.818 161.953C268.824 161.953 257.994 150.329 257.994 134.801C257.994 118.993 269.009 106.998 283.818 106.998C290.482 106.998 295.573 109.508 298.072 113.507H298.257V108.671H313.622V154.793C313.622 161.767 312.696 167.067 310.845 170.601C307.143 177.761 297.054 183.247 284.188 183.247C273.556 183.247 265.649 178.816 261.663 172.578L277.237 166.135C279.105 169.163 282.235 170.229 285.669 170.229ZM273.359 134.243C273.359 141.496 278.264 147.54 285.669 147.54C293.166 147.54 298.257 142.147 298.257 134.708C298.257 127.176 293.166 121.411 285.669 121.411C278.82 121.411 273.359 127.176 273.359 134.243Z" fill="white"/>
<path d="M348.86 106.777C342.897 106.777 338.235 109.379 335.091 113.933V107.862H319.805V161.093H335.091V134.857C335.091 124.991 341.054 120.546 348.426 120.546C350.269 120.546 352.113 120.871 353.956 121.305V107.428C352.221 107.103 350.486 106.777 348.86 106.777Z" fill="white"/>
<path d="M382.298 106.777C366.578 106.777 354.652 118.703 354.652 134.532C354.652 150.36 366.578 162.178 382.298 162.178C397.91 162.178 409.944 150.36 409.944 134.532C409.944 118.703 397.91 106.777 382.298 106.777ZM382.298 121.413C389.454 121.413 394.983 126.943 394.983 134.532C394.983 141.904 389.454 147.542 382.298 147.542C375.034 147.542 369.614 141.904 369.614 134.532C369.614 126.943 375.034 121.413 382.298 121.413Z" fill="white"/>
<path d="M450.702 107.861V135.941C450.702 142.988 446.474 147.541 440.186 147.541C433.789 147.541 429.669 142.988 429.669 135.941V107.861H414.383V137.892C414.383 152.962 422.622 162.177 436.283 162.177C442.462 162.177 447.45 159.25 450.702 154.046V161.093H465.989V107.861H450.702Z" fill="white"/>
<path d="M488.711 178.876V156.621C492.972 161.262 498.37 163.156 504.526 163.156C519.583 163.156 530.095 150.56 530.095 135.597C530.095 119.214 519.489 106.998 504.526 106.998C497.991 106.998 492.215 109.365 488.048 114.574H487.764V108.797H472.99V178.876H488.711ZM501.211 148.477C493.73 148.477 488.048 142.511 488.048 135.124C488.048 127.548 493.919 121.676 501.117 121.676C508.693 121.676 514.375 127.737 514.375 135.124C514.375 142.416 508.693 148.477 501.211 148.477Z" fill="white"/>
<path d="M517.221 26.8037L505.404 57.919L493.587 26.8037H477.107L497.598 75.6991L487.732 97.7074H504.103L533.7 26.8037H517.221Z" fill="white"/>
<path d="M586.687 1C581.592 1 577.363 5.2282 577.363 10.2153C577.363 15.3108 581.592 19.539 586.687 19.539C591.783 19.539 596.011 15.3108 596.011 10.2153C596.011 5.2282 591.783 1 586.687 1ZM579.098 26.8029V80.0349H594.385V26.8029H579.098Z" fill="white"/>
<path d="M325.156 25.7188C309.435 25.7188 297.51 37.6445 297.51 53.4731C297.51 69.3018 309.435 81.1191 325.156 81.1191C340.768 81.1191 352.802 69.3018 352.802 53.4731C352.802 37.6445 340.768 25.7188 325.156 25.7188ZM325.156 40.3548C332.311 40.3548 337.84 45.884 337.84 53.4731C337.84 60.8454 332.311 66.483 325.156 66.483C317.892 66.483 312.471 60.8454 312.471 53.4731C312.471 45.884 317.892 40.3548 325.156 40.3548Z" fill="white"/>
<path d="M573.556 41.3302V26.8026H560.438V8.46143L545.151 14.7016V26.8026H535.285V41.3302H545.151V58.3515C545.151 72.6623 553.607 80.9019 566.184 80.9019C568.352 80.9019 571.496 80.5766 573.556 80.0346V65.9406C572.363 66.2658 570.954 66.3742 569.653 66.3742C564.341 66.3742 560.438 63.8807 560.438 58.1346V41.3302H573.556Z" fill="white"/>
<path d="M296.265 41.3302V26.8026H283.147V8.46143L267.86 14.7016V26.8026H257.994V41.3302H267.86V58.3515C267.86 72.6623 276.316 80.9019 288.893 80.9019C291.061 80.9019 294.205 80.5766 296.265 80.0346V65.9406C295.072 66.2658 293.663 66.3742 292.362 66.3742C287.05 66.3742 283.147 63.8807 283.147 58.1346V41.3302H296.265Z" fill="white"/>
<path d="M656.198 80.0352L636.9 52.4977L654.897 26.8032H636.684L627.794 39.3794L619.012 26.8032H600.581L618.578 52.6061L599.389 80.0352H617.602L627.685 65.616L637.768 80.0352H656.198Z" fill="white"/>
<path d="M474.558 78.8601V26.3008H458.838V31.8882H458.648C455.618 27.0584 449.652 24.5015 443.212 24.5015C428.154 24.5015 416.885 37.0021 416.885 52.5331C416.885 68.443 427.681 80.6595 443.212 80.6595C450.125 80.6595 456.375 77.8184 458.648 73.1781H458.838V78.8601H474.558ZM445.674 65.9807C438.382 65.9807 432.605 60.0145 432.605 52.7225C432.605 45.1464 438.287 39.1802 445.485 39.1802C452.871 39.1802 458.838 45.1464 458.838 52.5331C458.838 60.1092 453.061 65.9807 445.674 65.9807Z" fill="white"/>
<path d="M397.27 8.62154L397.27 30.8764C393.008 26.236 387.61 24.342 381.455 24.342C366.397 24.342 355.885 36.9373 355.885 51.9001C355.885 68.2835 366.492 80.5 381.455 80.5C387.989 80.5 393.766 78.1325 397.933 72.9239L398.217 72.9239L398.217 78.7007L412.99 78.7007L412.99 8.62154L397.27 8.62154ZM384.769 39.0207C392.251 39.0207 397.933 44.9869 397.933 52.3736C397.933 59.9498 392.061 65.8213 384.864 65.8213C377.288 65.8213 371.606 59.7604 371.606 52.3736C371.606 45.0816 377.288 39.0207 384.769 39.0207Z" fill="white"/>
<defs>
<linearGradient id="paint0_linear" x1="2.25" y1="105.063" x2="216.53" y2="148" gradientUnits="userSpaceOnUse">
<stop stop-color="#FF1368"/>
<stop offset="1" stop-color="#FF1226"/>
</linearGradient>
</defs>
</svg>
